<svg xmlns="http://www.w3.org/2000/svg" xmlns:xlink="http://www.w3.org/1999/xlink" width="500" zoomAndPan="magnify" viewBox="0 0 375 374.999991" height="500" preserveAspectRatio="xMidYMid meet" version="1.0"><path fill="#ffffff" d="M 183.320312 111.777344 C 181.269531 113.359375 177.566406 116.054688 175.09375 117.765625 C 172.617188 119.476562 167.703125 122.953125 164.164062 125.496094 L 157.738281 130.121094 L 157.207031 119.542969 L 137.75 119.542969 L 137.714844 131.757812 L 137.683594 143.96875 L 132.609375 147.4375 C 120 156.046875 108.480469 164.457031 108.457031 165.066406 C 108.445312 165.433594 112.332031 165.734375 117.097656 165.734375 C 126.726562 165.730469 124.59375 166.671875 140.625 155.355469 C 143.195312 153.542969 147.699219 150.402344 150.628906 148.382812 C 153.5625 146.363281 160.957031 141.175781 167.0625 136.863281 C 172.359375 133.117188 177.664062 129.386719 182.980469 125.667969 L 187.789062 122.316406 L 190.085938 124.0625 C 195.175781 127.9375 200.929688 132.023438 204.265625 134.132812 L 207.792969 136.359375 L 210.03125 132.539062 C 211.261719 130.441406 212.390625 128.289062 212.539062 127.757812 C 212.75 127.023438 188.445312 108.851562 187.300781 108.890625 C 187.164062 108.894531 185.371094 110.195312 183.320312 111.777344 M 207.03125 151.738281 C 202.667969 159.515625 198.296875 167.289062 193.917969 175.054688 C 192.558594 177.476562 191.242188 179.921875 189.96875 182.390625 C 188.902344 184.46875 187.808594 186.152344 187.539062 186.136719 C 187.273438 186.121094 182.300781 177.519531 176.496094 167.019531 C 170.691406 156.519531 165.660156 147.753906 165.316406 147.542969 C 164.707031 147.164062 155.667969 153.050781 143.734375 161.601562 L 137.726562 165.910156 L 138.195312 221.253906 L 156.847656 221.253906 L 157.085938 194.613281 C 157.351562 164.296875 156.507812 165.835938 164.644531 180.835938 C 166.898438 184.988281 171.527344 193.382812 174.933594 199.488281 L 181.132812 210.59375 L 187.363281 210.851562 L 193.59375 211.113281 L 195.753906 207.300781 C 196.945312 205.203125 200.589844 198.605469 203.859375 192.644531 L 209.796875 181.796875 L 212.917969 183.285156 C 215.71875 184.621094 215.882812 184.886719 214.519531 185.882812 C 213.6875 186.492188 212.5625 187.171875 212.019531 187.398438 C 210.21875 188.144531 213.574219 189.691406 217.03125 189.707031 C 219.621094 189.714844 220.363281 190.070312 220.363281 191.289062 C 220.363281 192.152344 221.363281 194.328125 222.585938 196.128906 C 223.804688 197.925781 224.804688 200.335938 224.804688 201.484375 C 224.804688 204.511719 226.441406 205.707031 230.578125 205.707031 C 234.808594 205.707031 236.351562 204.507812 236.351562 201.226562 C 236.351562 199.929688 237.183594 197.917969 238.195312 196.75 C 239.207031 195.585938 240.261719 193.492188 240.539062 192.101562 C 240.929688 190.148438 241.429688 189.679688 242.757812 190.023438 C 244.644531 190.515625 249.675781 189.042969 249.675781 187.996094 C 249.675781 187.636719 248.578125 186.828125 247.234375 186.203125 L 244.792969 185.070312 L 247.628906 183.703125 C 251.648438 181.769531 253.035156 178.042969 251.183594 174.160156 C 249.605469 170.851562 245.273438 167.660156 246.535156 170.738281 C 248.042969 174.414062 248.058594 175.636719 246.621094 177.222656 C 244.679688 179.367188 240.585938 180.074219 235.019531 179.226562 C 232.578125 178.855469 228.582031 178.859375 226.136719 179.238281 C 221.15625 180.011719 217.128906 179.496094 214.808594 177.785156 C 213.335938 176.699219 213.359375 176.402344 215.25 172.296875 L 217.253906 167.953125 L 217.519531 172.089844 C 217.839844 177.015625 219.183594 177.660156 226.648438 176.476562 C 229.300781 176.054688 232.753906 175.90625 234.324219 176.148438 L 237.179688 176.585938 L 237.433594 167.117188 L 237.683594 157.644531 L 243.460938 161.679688 L 249.234375 165.714844 L 258.5625 165.71875 L 267.886719 165.726562 L 265.222656 163.558594 C 263.757812 162.367188 256.871094 157.472656 249.921875 152.683594 L 237.28125 143.96875 L 237.242188 131.976562 L 218.128906 131.976562 Z M 217.9375 207.929688 L 218.140625 221.253906 L 236.796875 221.253906 L 237.054688 214.449219 L 237.3125 207.648438 L 232.023438 208.125 C 227.195312 208.5625 226.535156 208.40625 224.4375 206.308594 C 223.175781 205.046875 222.136719 203.09375 222.136719 201.972656 C 222.132812 200.851562 221.140625 198.734375 219.929688 197.269531 L 217.730469 194.605469 Z M 252.933594 234.726562 C 252.609375 235.050781 252.34375 242.046875 252.34375 250.273438 L 252.34375 265.226562 L 255.453125 265.226562 C 258.390625 265.226562 258.5625 265.0625 258.5625 262.222656 C 258.5625 260.574219 259.191406 258.703125 259.960938 258.0625 C 261.488281 256.796875 261.175781 256.523438 264.867188 262.339844 C 266.351562 264.675781 267.28125 265.226562 269.738281 265.226562 C 271.40625 265.226562 272.773438 264.925781 272.769531 264.558594 C 272.769531 264.191406 271.171875 261.496094 269.21875 258.5625 C 267.269531 255.632812 265.6875 252.832031 265.707031 252.34375 C 265.726562 251.855469 267.324219 249.65625 269.261719 247.457031 L 272.777344 243.460938 L 270.332031 242.949219 C 267.109375 242.277344 266.257812 242.78125 262.085938 247.828125 L 258.5625 252.09375 L 258.5625 234.132812 L 256.042969 234.132812 C 254.660156 234.132812 253.261719 234.402344 252.933594 234.726562 M 101.949219 235.6875 C 101.742188 236.054688 101.621094 242.75 101.675781 250.566406 L 101.773438 264.78125 L 104.660156 265.058594 L 107.546875 265.339844 L 107.546875 260.394531 C 107.546875 255.5 107.574219 255.453125 110.203125 255.453125 C 112.5 255.453125 113.238281 256.121094 115.621094 260.339844 C 118.242188 264.984375 118.550781 265.226562 121.921875 265.226562 L 125.464844 265.226562 L 122.304688 259.570312 C 119.160156 253.949219 119.152344 253.902344 120.90625 252.3125 C 124.847656 248.746094 124.589844 240.613281 120.425781 237.019531 C 118.398438 235.273438 117.121094 235.023438 110.214844 235.023438 C 105.875 235.023438 102.15625 235.324219 101.949219 235.6875 M 167.953125 237.6875 C 167.953125 240.292969 168.050781 240.351562 172.394531 240.351562 L 176.835938 240.351562 L 176.835938 265.226562 L 183.054688 265.226562 L 183.054688 240.351562 L 187.496094 240.351562 C 191.839844 240.351562 191.9375 240.292969 191.9375 237.6875 L 191.9375 235.023438 L 167.953125 235.023438 Z M 108.140625 240.945312 C 107.8125 241.269531 107.546875 243.226562 107.546875 245.292969 C 107.546875 249.605469 108.757812 250.476562 113.511719 249.585938 C 120.234375 248.324219 119.03125 240.351562 112.117188 240.351562 C 110.253906 240.351562 108.464844 240.617188 108.140625 240.945312 M 131.453125 244.15625 C 127.726562 246.667969 126.226562 249.523438 126.226562 254.121094 C 126.226562 258.742188 127.726562 261.570312 131.546875 264.167969 C 135.410156 266.792969 140.8125 266.457031 144.75 263.34375 C 148.058594 260.726562 148.128906 260.082031 145.226562 258.980469 C 143.402344 258.285156 142.480469 258.460938 140.730469 259.839844 C 139.492188 260.8125 137.867188 261.339844 137.027344 261.042969 C 135.101562 260.363281 132.421875 258.0625 132.421875 257.09375 C 132.421875 256.679688 136.019531 256.34375 140.414062 256.34375 L 148.410156 256.34375 L 148.410156 253.363281 C 148.410156 249.882812 145.296875 244.851562 142.164062 243.265625 C 138.824219 241.574219 134.785156 241.910156 131.453125 244.15625 M 154.984375 243.398438 C 151.984375 244.703125 151.074219 246.261719 151.074219 250.085938 C 151.074219 253.097656 152.039062 253.964844 157.75 256.085938 C 162.496094 257.847656 163.949219 260.242188 160.859375 261.222656 C 159.707031 261.589844 157.664062 261.121094 155.5 259.992188 C 152.011719 258.171875 151.996094 258.171875 151.050781 259.9375 C 149.839844 262.203125 150.570312 263.328125 154.265625 264.871094 C 159.207031 266.9375 163.285156 266.476562 166.246094 263.515625 C 171.035156 258.726562 168.863281 253.902344 160.90625 251.65625 C 156.691406 250.464844 155.746094 248.792969 158.355469 247.144531 C 159.480469 246.4375 160.65625 246.574219 163 247.691406 C 166.003906 249.125 166.179688 249.117188 167.046875 247.492188 C 168.363281 245.03125 168.257812 244.832031 164.871094 243.417969 C 161.097656 241.839844 158.574219 241.835938 154.984375 243.398438 M 191.9375 253.832031 L 191.9375 265.226562 L 197.761719 265.226562 L 197.601562 258.632812 C 197.46875 252.910156 197.699219 251.808594 199.355469 250.28125 C 200.40625 249.316406 202.0625 248.382812 203.042969 248.207031 C 204.214844 247.996094 204.914062 247.0625 205.097656 245.449219 C 205.488281 242.09375 203.171875 241.371094 199.867188 243.8125 C 197.9375 245.238281 197.265625 245.410156 197.265625 244.476562 C 197.265625 243.757812 196.125 243.050781 194.601562 242.828125 L 191.9375 242.4375 Z M 209.925781 243.628906 C 206.875 245.199219 206.3125 246.640625 208.152344 248.164062 C 208.933594 248.816406 209.921875 248.722656 211.484375 247.863281 C 214.710938 246.074219 217.410156 246.300781 218.945312 248.492188 C 220.570312 250.816406 220.089844 251.894531 217.707031 251.273438 C 214.929688 250.546875 209.769531 251.832031 207.878906 253.726562 C 206.753906 254.851562 206.148438 256.671875 206.148438 258.941406 C 206.148438 264.992188 212.074219 267.878906 218.074219 264.75 C 219.5625 263.972656 220.886719 263.746094 221.183594 264.21875 C 221.464844 264.671875 222.894531 265.183594 224.359375 265.355469 C 227.363281 265.710938 227.230469 266.730469 225.925781 253.480469 C 225.40625 248.21875 224.800781 246.171875 223.324219 244.695312 C 220.757812 242.128906 213.898438 241.582031 209.925781 243.628906 M 235.910156 242.929688 C 234.929688 243.359375 233.132812 244.785156 231.910156 246.101562 C 230.011719 248.144531 229.691406 249.332031 229.691406 254.292969 C 229.691406 259.957031 229.777344 260.171875 233.242188 263.1875 C 236.464844 265.984375 237.195312 266.238281 241.046875 265.878906 C 245.296875 265.480469 249.675781 262.640625 249.675781 260.28125 C 249.675781 258.464844 245.269531 257.894531 242.953125 259.410156 C 240.21875 261.203125 239.378906 261.144531 237.242188 259.007812 C 233.890625 255.65625 235.960938 247.460938 240.152344 247.460938 C 240.777344 247.460938 242.144531 248.058594 243.195312 248.796875 C 244.621094 249.792969 245.679688 249.910156 247.390625 249.261719 C 250.207031 248.191406 250.25 247.417969 247.628906 244.957031 C 245.351562 242.820312 238.753906 241.675781 235.910156 242.929688 M 134.242188 248.300781 C 131.398438 251.148438 132.039062 251.902344 137.304688 251.902344 C 142.363281 251.902344 142.964844 251.449219 141.082031 249.050781 C 139.160156 246.605469 136.253906 246.289062 134.242188 248.300781 M 212.945312 255.894531 C 209.753906 259.082031 212.90625 262.601562 217.203125 260.644531 C 218.453125 260.074219 219.503906 259.375 219.542969 259.085938 C 219.582031 258.796875 219.746094 257.863281 219.910156 257.007812 C 220.070312 256.152344 219.742188 255.449219 219.175781 255.441406 C 218.605469 255.433594 217.304688 255.203125 216.277344 254.929688 C 215.15625 254.628906 213.824219 255.015625 212.945312 255.894531 " fill-opacity="1" fill-rule="evenodd"/></svg>